<svg width="204" height="184" viewBox="0 0 204 184" fill="none" xmlns="http://www.w3.org/2000/svg">
<g clip-path="url(#clip0_323_9246)">
<path d="M104.349 107.147L59.8797 107.927C59.1778 107.941 58.4801 107.816 57.8264 107.561C57.1728 107.305 56.576 106.923 56.0704 106.437C55.5648 105.951 55.1603 105.37 54.8799 104.728C54.5995 104.086 54.4488 103.395 54.4365 102.694C54.4242 101.994 54.5504 101.298 54.808 100.646C55.0655 99.9944 55.4494 99.3998 55.9375 98.8963C56.4257 98.3928 57.0086 97.9904 57.6529 97.712C58.2971 97.4336 58.99 97.2848 59.692 97.274L104.161 96.4938C104.824 96.4822 105.464 96.7339 105.941 97.1934C106.418 97.653 106.693 98.2828 106.705 98.9444L106.804 104.608C106.816 105.241 106.585 105.854 106.16 106.324C105.735 106.794 105.148 107.085 104.516 107.138C104.46 107.143 104.405 107.145 104.349 107.147Z" fill="#6C63FF"/>
<path d="M95.7608 108.594L59.2777 110.256C58.9498 110.271 58.6221 110.221 58.3133 110.11C58.0046 109.999 57.7208 109.828 57.4783 109.607C57.2358 109.386 57.0393 109.12 56.8999 108.823C56.7606 108.526 56.6812 108.205 56.6662 107.878L56.2801 99.4377C56.2499 98.7767 56.484 98.1308 56.931 97.6421C57.378 97.1534 58.0012 96.8619 58.6636 96.8316L95.1466 95.1697C95.4746 95.1547 95.8023 95.2044 96.111 95.3158C96.4198 95.4272 96.7035 95.5982 96.946 95.8191C97.1885 96.0399 97.3851 96.3063 97.5244 96.6029C97.6638 96.8995 97.7432 97.2207 97.7582 97.5479L98.1442 105.988C98.173 106.633 97.9507 107.263 97.524 107.748C97.0973 108.232 96.4992 108.534 95.8551 108.588C95.8239 108.591 95.7923 108.593 95.7608 108.594Z" fill="#2F2E41"/>
<path d="M34.0651 181.005V133.791C34.0659 133.13 34.3295 132.496 34.7982 132.028C35.2669 131.56 35.9024 131.297 36.5652 131.297H42.2422C42.905 131.297 43.5404 131.56 44.0091 132.028C44.4778 132.496 44.7415 133.13 44.7422 133.791V181.005C44.7415 181.667 44.4778 182.301 44.0091 182.768C43.5404 183.236 42.905 183.499 42.2422 183.5H36.5652C35.9024 183.499 35.2669 183.236 34.7982 182.768C34.3295 182.301 34.0659 181.667 34.0651 181.005Z" fill="#6C63FF"/>
<path d="M48.9626 181.005V133.791C48.9633 133.13 49.227 132.496 49.6957 132.028C50.1643 131.56 50.7998 131.297 51.4626 131.297H57.1396C57.8024 131.297 58.4379 131.56 58.9066 132.028C59.3753 132.496 59.6389 133.13 59.6397 133.791V181.005C59.6389 181.667 59.3753 182.301 58.9066 182.768C58.4379 183.236 57.8024 183.499 57.1396 183.5H51.4626C50.7998 183.499 50.1644 183.236 49.6957 182.768C49.227 182.301 48.9633 181.667 48.9626 181.005Z" fill="#6C63FF"/>
<path d="M50.4452 82.0236C61.2787 82.0236 70.061 73.2599 70.061 62.4493C70.061 51.6388 61.2787 42.8751 50.4452 42.8751C39.6117 42.8751 30.8293 51.6388 30.8293 62.4493C30.8293 73.2599 39.6117 82.0236 50.4452 82.0236Z" fill="#6C63FF"/>
<path d="M61.0631 69.1327C61.6941 68.9258 62.2734 68.5865 62.762 68.1375C63.0857 67.817 63.3353 67.4297 63.4933 67.0028C63.6512 66.5759 63.7137 66.1197 63.6764 65.6662C63.6559 65.343 63.5608 65.029 63.3985 64.7486C63.2362 64.4683 63.0111 64.2291 62.7408 64.0499C62.0393 63.6009 61.1011 63.5996 60.1459 64.0197L60.1821 56.3782L59.4129 56.3745L59.3703 65.3579L59.963 64.9859C60.6503 64.5552 61.6319 64.252 62.3254 64.6961C62.4968 64.8134 62.6388 64.9686 62.7403 65.1496C62.8418 65.3306 62.9001 65.5325 62.9106 65.7396C62.9366 66.0775 62.8893 66.4169 62.7719 66.7349C62.6546 67.0529 62.47 67.3419 62.2307 67.5823C61.3813 68.3919 60.142 68.6451 58.7288 68.8714L58.8507 69.6292C59.6016 69.53 60.342 69.3638 61.0631 69.1327Z" fill="#2F2E41"/>
<path d="M68.1117 55.992L64.0043 56.5333L64.105 57.2942L68.2124 56.753L68.1117 55.992Z" fill="#2F2E41"/>
<path d="M55.147 57.7002L51.0396 58.2415L51.1403 59.0024L55.2477 58.4611L55.147 57.7002Z" fill="#2F2E41"/>
<path d="M8.82899 60.9038L36.9927 95.2532C37.437 95.7946 37.7701 96.418 37.9728 97.0879C38.1756 97.7577 38.2442 98.4609 38.1745 99.1572C38.1049 99.8535 37.8985 100.529 37.5671 101.146C37.2357 101.763 36.7857 102.308 36.243 102.751C35.7003 103.194 35.0754 103.526 34.404 103.728C33.7326 103.931 33.0279 103.999 32.3302 103.929C31.6325 103.859 30.9553 103.653 30.3375 103.322C29.7196 102.991 29.1732 102.542 28.7294 102L0.565505 67.6505C0.357581 67.397 0.201737 67.105 0.106883 66.7914C0.0120286 66.4777 -0.0199854 66.1485 0.0126736 65.8225C0.0453326 65.4965 0.142019 65.1802 0.297219 64.8914C0.452418 64.6028 0.663087 64.3474 0.917195 64.1399L5.31083 60.5526C5.82404 60.1337 6.48301 59.9353 7.14278 60.0012C7.80254 60.067 8.40909 60.3917 8.82899 60.9038Z" fill="#6C63FF"/>
<path d="M18.2219 68.5701L41.3485 96.776C41.5564 97.0295 41.7122 97.3214 41.8071 97.6351C41.9019 97.9487 41.9339 98.2779 41.9013 98.6039C41.8686 98.9299 41.7719 99.2463 41.6167 99.535C41.4615 99.8237 41.2509 100.079 40.9968 100.287L33.4922 106.414C33.2381 106.621 32.9456 106.777 32.6312 106.871C32.3169 106.966 31.987 106.998 31.6603 106.965C31.3336 106.933 31.0165 106.836 30.7272 106.681C30.4379 106.526 30.182 106.316 29.9741 106.063L6.8475 77.8569C6.42836 77.3445 6.23 76.6871 6.29593 76.029C6.36186 75.3709 6.68671 74.7657 7.1992 74.3463L14.7038 68.219C15.217 67.8001 15.876 67.6017 16.5357 67.6675C17.1955 67.7334 17.802 68.058 18.2219 68.5701Z" fill="#2F2E41"/>
<path d="M178.56 34.2804C178.277 33.6103 177.804 33.0377 177.198 32.6334C176.593 32.2291 175.882 32.0109 175.153 32.0057H107.147C106.169 32.0062 105.232 32.3939 104.541 33.0837C103.85 33.7735 103.461 34.7089 103.46 35.6843V121.536C103.461 122.512 103.85 123.447 104.541 124.137C105.232 124.826 106.169 125.214 107.147 125.215H175.155C176.133 125.213 177.07 124.825 177.761 124.136C178.452 123.446 178.841 122.511 178.842 121.536V35.6843C178.844 35.2024 178.749 34.7251 178.563 34.2804H178.56ZM178.021 121.536C178.02 122.295 177.718 123.022 177.18 123.559C176.642 124.095 175.913 124.397 175.153 124.398H107.147C106.386 124.398 105.657 124.096 105.119 123.56C104.582 123.023 104.279 122.295 104.279 121.537V35.6848C104.28 34.9262 104.583 34.1989 105.12 33.6624C105.658 33.126 106.387 32.8241 107.147 32.8231H175.155C175.728 32.8253 176.287 32.9977 176.761 33.3183C177.236 33.6389 177.603 34.0933 177.817 34.6233C177.859 34.7289 177.895 34.8367 177.925 34.9461C177.99 35.187 178.023 35.4354 178.023 35.6848L178.021 121.536Z" fill="#3F3D56"/>
<path d="M164.368 52.275H143.884C143.668 52.2753 143.455 52.2333 143.256 52.1513C143.057 52.0692 142.876 51.9488 142.723 51.7969C142.571 51.645 142.45 51.4647 142.367 51.2661C142.285 51.0675 142.242 50.8546 142.242 50.6397C142.242 50.4247 142.285 50.2118 142.367 50.0133C142.45 49.8147 142.571 49.6343 142.723 49.4824C142.876 49.3305 143.057 49.2101 143.256 49.1281C143.455 49.0461 143.668 49.004 143.884 49.0043H164.368C164.584 49.004 164.797 49.0461 164.996 49.1281C165.195 49.2101 165.376 49.3305 165.529 49.4824C165.681 49.6343 165.802 49.8147 165.884 50.0133C165.967 50.2118 166.009 50.4247 166.009 50.6397C166.009 50.8546 165.967 51.0675 165.884 51.2661C165.802 51.4647 165.681 51.645 165.529 51.7969C165.376 51.9488 165.195 52.0692 164.996 52.1513C164.797 52.2333 164.584 52.2753 164.368 52.275Z" fill="#3F3D56"/>
<path d="M164.368 60.8602H143.884C143.668 60.8606 143.455 60.8185 143.256 60.7365C143.057 60.6544 142.876 60.534 142.723 60.3821C142.571 60.2303 142.45 60.0499 142.367 59.8513C142.285 59.6527 142.242 59.4398 142.242 59.2249C142.242 59.0099 142.285 58.7971 142.367 58.5985C142.45 58.3999 142.571 58.2195 142.723 58.0676C142.876 57.9157 143.057 57.7953 143.256 57.7133C143.455 57.6313 143.668 57.5892 143.884 57.5895H164.368C164.584 57.5892 164.797 57.6313 164.996 57.7133C165.195 57.7953 165.376 57.9157 165.529 58.0676C165.681 58.2195 165.802 58.3999 165.884 58.5985C165.967 58.7971 166.009 59.0099 166.009 59.2249C166.009 59.4398 165.967 59.6527 165.884 59.8513C165.802 60.0499 165.681 60.2303 165.529 60.3821C165.376 60.534 165.195 60.6544 164.996 60.7365C164.797 60.8185 164.584 60.8606 164.368 60.8602Z" fill="#3F3D56"/>
<path d="M133.373 65.7486H118.403C117.915 65.7481 117.446 65.5541 117.1 65.2092C116.755 64.8642 116.56 64.3966 116.56 63.9088V46.2806C116.56 45.7928 116.755 45.3251 117.1 44.9802C117.446 44.6353 117.915 44.4412 118.403 44.4407H133.373C133.862 44.4412 134.331 44.6353 134.676 44.9802C135.022 45.3251 135.216 45.7928 135.217 46.2806V63.9088C135.216 64.3966 135.022 64.8642 134.676 65.2092C134.331 65.5541 133.862 65.7481 133.373 65.7486Z" fill="#6C63FF"/>
<path d="M164.226 78.4395H117.931C117.497 78.4395 117.08 78.2672 116.772 77.9606C116.465 77.6539 116.292 77.2379 116.292 76.8042C116.292 76.3705 116.465 75.9545 116.772 75.6478C117.08 75.3411 117.497 75.1689 117.931 75.1689H164.226C164.661 75.1689 165.077 75.3411 165.385 75.6478C165.692 75.9545 165.865 76.3705 165.865 76.8042C165.865 77.2379 165.692 77.6539 165.385 77.9606C165.077 78.2672 164.661 78.4395 164.226 78.4395Z" fill="#CCCCCC"/>
<path d="M164.226 87.0247H117.931C117.497 87.024 117.081 86.8515 116.774 86.5448C116.467 86.2382 116.295 85.8226 116.295 85.3894C116.295 84.9561 116.467 84.5405 116.774 84.2339C117.081 83.9273 117.497 83.7547 117.931 83.754H164.226C164.441 83.7537 164.655 83.7957 164.854 83.8778C165.053 83.9598 165.234 84.0802 165.386 84.2321C165.539 84.384 165.66 84.5644 165.742 84.763C165.825 84.9615 165.867 85.1744 165.867 85.3894C165.867 85.6043 165.825 85.8172 165.742 86.0158C165.66 86.2144 165.539 86.3947 165.386 86.5466C165.234 86.6985 165.053 86.8189 164.854 86.901C164.655 86.983 164.441 87.0251 164.226 87.0247Z" fill="#CCCCCC"/>
<path d="M164.226 95.6099H117.931C117.497 95.6092 117.081 95.4366 116.774 95.13C116.467 94.8234 116.295 94.4078 116.295 93.9745C116.295 93.5413 116.467 93.1257 116.774 92.8191C117.081 92.5125 117.497 92.3399 117.931 92.3392H164.226C164.441 92.3389 164.655 92.3809 164.854 92.463C165.053 92.545 165.234 92.6654 165.386 92.8173C165.539 92.9692 165.66 93.1496 165.742 93.3481C165.825 93.5467 165.867 93.7596 165.867 93.9745C165.867 94.1895 165.825 94.4024 165.742 94.601C165.66 94.7995 165.539 94.9799 165.386 95.1318C165.234 95.2837 165.053 95.4041 164.854 95.4861C164.655 95.5682 164.441 95.6102 164.226 95.6099Z" fill="#CCCCCC"/>
<path d="M164.226 104.195H117.931C117.497 104.194 117.081 104.022 116.774 103.715C116.467 103.409 116.295 102.993 116.295 102.56C116.295 102.126 116.467 101.711 116.774 101.404C117.081 101.098 117.497 100.925 117.931 100.924H164.226C164.441 100.924 164.655 100.966 164.854 101.048C165.053 101.13 165.234 101.251 165.386 101.402C165.539 101.554 165.66 101.735 165.742 101.933C165.825 102.132 165.867 102.345 165.867 102.56C165.867 102.775 165.825 102.988 165.742 103.186C165.66 103.385 165.539 103.565 165.386 103.717C165.234 103.869 165.053 103.989 164.854 104.071C164.655 104.153 164.441 104.195 164.226 104.195Z" fill="#CCCCCC"/>
<path d="M164.226 112.78H117.931C117.497 112.78 117.081 112.607 116.774 112.3C116.467 111.994 116.295 111.578 116.295 111.145C116.295 110.712 116.467 110.296 116.774 109.989C117.081 109.683 117.497 109.51 117.931 109.51H164.226C164.441 109.509 164.655 109.551 164.854 109.633C165.053 109.715 165.234 109.836 165.386 109.988C165.539 110.14 165.66 110.32 165.742 110.519C165.825 110.717 165.867 110.93 165.867 111.145C165.867 111.36 165.825 111.573 165.742 111.771C165.66 111.97 165.539 112.15 165.386 112.302C165.234 112.454 165.053 112.574 164.854 112.657C164.655 112.739 164.441 112.781 164.226 112.78Z" fill="#CCCCCC"/>
<path d="M180.539 47.3223C193.496 47.3223 204 36.8408 204 23.9112C204 10.9815 193.496 0.5 180.539 0.5C167.582 0.5 157.078 10.9815 157.078 23.9112C157.078 36.8408 167.582 47.3223 180.539 47.3223Z" fill="#6C63FF"/>
<path d="M180.085 40.0255C181.609 40.0255 182.845 38.7922 182.845 37.2709C182.845 35.7495 181.609 34.5162 180.085 34.5162C178.56 34.5162 177.324 35.7495 177.324 37.2709C177.324 38.7922 178.56 40.0255 180.085 40.0255Z" fill="white"/>
<path d="M179.789 8.52652C177.708 8.54712 175.717 9.3773 174.24 10.8404C172.763 12.3035 171.917 14.284 171.881 16.3604C171.88 16.4001 171.88 16.6796 171.88 17.0451C171.88 17.5811 172.094 18.095 172.473 18.474C172.853 18.853 173.368 19.0659 173.905 19.066C174.443 19.0659 174.958 18.8527 175.338 18.4734C175.718 18.0941 175.931 17.5797 175.931 17.0433V17.042C175.931 16.7934 175.931 16.6213 175.931 16.6107C175.931 15.9454 176.104 15.2915 176.434 14.7134C176.764 14.1352 177.239 13.6527 177.813 13.3134C178.386 12.974 179.038 12.7895 179.705 12.7779C180.371 12.7663 181.03 12.9281 181.615 13.2473C182.2 13.5665 182.691 14.0322 183.041 14.5985C183.391 15.1649 183.587 15.8124 183.61 16.4773C183.633 17.1422 183.482 17.8016 183.173 18.3908C182.863 18.9799 182.405 19.4784 181.843 19.8373L181.844 19.8381C181.844 19.8381 178.962 21.6897 178.083 24.2298L178.084 24.23C177.929 24.7503 177.851 25.2902 177.851 25.8329C177.851 26.056 177.864 28.008 177.89 29.5923C177.899 30.139 178.123 30.6603 178.513 31.0437C178.904 31.4271 179.43 31.6419 179.978 31.6417C180.252 31.6417 180.523 31.5878 180.777 31.4831C181.03 31.3784 181.26 31.2249 181.454 31.0314C181.648 30.8379 181.802 30.6082 181.907 30.3553C182.012 30.1025 182.066 29.8316 182.066 29.5579L182.066 29.5451C182.057 28.0942 182.052 26.4047 182.052 26.2821C182.052 24.7224 183.56 23.1684 184.799 22.155C186.232 20.9964 187.24 19.3956 187.663 17.6038C187.754 17.2345 187.805 16.8563 187.813 16.476C187.813 15.432 187.607 14.3983 187.207 13.4338C186.806 12.4693 186.22 11.5929 185.48 10.8547C184.74 10.1165 183.862 9.53095 182.895 9.13144C181.929 8.73193 180.893 8.52631 179.847 8.52631C179.828 8.52631 179.808 8.52638 179.789 8.52652Z" fill="white"/>
<path d="M45.5276 53.7888C49.0396 51.4848 53.4536 52.5213 57.357 52.8223C60.8841 53.0942 65.0647 52.8263 67.5454 49.9507C70.1263 46.9591 69.9106 42.5172 67.7738 39.3529C65.6706 36.2383 62.1794 34.2717 58.4859 33.7531C56.4395 33.4539 54.3531 33.5831 52.3595 34.1325C50.3658 34.6819 48.5087 35.6394 46.9061 36.9442L48.1614 37.463C47.4299 30.4845 42.288 24.1758 35.3893 22.4646C28.4093 20.7332 20.6034 23.6881 16.8795 29.8985C13.2082 36.021 13.6431 44.5643 18.9275 49.6522C21.4652 52.0956 24.9173 53.3404 28.4206 52.6762C31.6516 52.0636 34.5223 49.7133 35.127 46.3942C35.6875 43.3175 34.4631 39.8227 31.4639 38.479C30.6433 38.0971 29.7465 37.9062 28.8411 37.9206C27.9357 37.9351 27.0454 38.1545 26.2374 38.5624C25.5056 38.9732 24.8873 39.5587 24.4377 40.2664C23.9881 40.9741 23.7213 41.7819 23.6612 42.6177C23.6053 43.4268 23.7705 44.2359 24.1391 44.9587C24.5555 45.8067 25.8242 45.0638 25.409 44.218C25.1408 43.5961 25.0646 42.9085 25.1901 42.2432C25.3156 41.5779 25.6371 40.965 26.1135 40.483C27.2037 39.3466 28.9246 39.1579 30.3732 39.6225C33.0239 40.4727 34.1942 43.507 33.6948 46.0812C33.1353 48.9645 30.6686 50.8172 27.8599 51.2916C24.8055 51.8075 21.8269 50.5205 19.7067 48.3559C15.2663 43.8227 14.882 36.5215 17.8774 31.1111C20.9161 25.6225 27.3979 22.6752 33.572 23.5959C39.6772 24.5063 44.7052 29.2981 46.2719 35.2066C46.4695 35.9468 46.6096 36.7012 46.6907 37.463C46.6957 37.6058 46.7418 37.7442 46.8235 37.8616C46.9051 37.9791 47.0189 38.0706 47.1512 38.1253C47.2835 38.18 47.4288 38.1955 47.5697 38.1701C47.7106 38.1447 47.8413 38.0793 47.946 37.9819C53.1629 33.6584 61.8398 34.1221 66.1174 39.5611C68.2152 42.2285 68.8334 46.3706 66.3837 49.0501C64.0511 51.6014 60.1775 51.604 56.9916 51.3245C52.9161 50.9671 48.4359 50.1267 44.7853 52.5216C43.9977 53.0382 44.7336 54.3096 45.5276 53.7888Z" fill="#2F2E41"/>
<path d="M61.3452 150.256H31.9318C31.347 150.255 30.7862 150.023 30.3727 149.61C29.9591 149.198 29.7265 148.638 29.7258 148.054V138.271C29.7265 137.687 29.9591 137.128 30.3727 136.715C30.7862 136.302 31.347 136.07 31.9318 136.069H61.3452C61.9301 136.07 62.4908 136.302 62.9044 136.715C63.3179 137.128 63.5505 137.687 63.5512 138.271V148.054C63.5505 148.638 63.3179 149.198 62.9044 149.61C62.4908 150.023 61.9301 150.255 61.3452 150.256Z" fill="#2F2E41"/>
<path d="M62.3503 102.02C61.4293 97.3203 57.8527 93.5986 53.2105 92.0684C54.8869 91.5301 55.9527 90.733 55.9527 89.8416C55.9527 88.2206 52.4411 86.9065 48.1092 86.9065C43.7773 86.9065 40.2656 88.2206 40.2656 89.8416C40.2656 90.746 41.3604 91.5542 43.0794 92.0926C35.9624 94.21 30.7966 100.391 30.7966 107.669C30.7966 107.669 28.6058 121.683 26.8857 132.886C25.7853 140.053 31.7981 146.459 39.6232 146.459H67.1436C68.9463 146.459 70.4129 145.102 70.4129 143.434C70.4129 143.434 65.3418 117.286 62.3503 102.02Z" fill="#2F2E41"/>
</g>
<defs>
<clipPath id="clip0_323_9246">
<rect width="204" height="183" fill="white" transform="translate(0 0.5)"/>
</clipPath>
</defs>
</svg>
